<?xml version="1.0" encoding="UTF-8" standalone="no"?>
<!DOCTYPE svg PUBLIC "-//W3C//DTD SVG 1.1//EN" "http://www.w3.org/Graphics/SVG/1.1/DTD/svg11.dtd">
<svg width="100%" height="100%" viewBox="0 0 999 72" version="1.1" xmlns="http://www.w3.org/2000/svg" xmlns:xlink="http://www.w3.org/1999/xlink" xml:space="preserve" xmlns:serif="http://www.serif.com/" style="fill-rule:evenodd;clip-rule:evenodd;stroke-linejoin:round;stroke-miterlimit:2;">
    <path d="M692.794,8.331L676.128,8.331L676.128,45.662C672.084,48.716 662.375,54.498 646.75,54.556C632.119,54.61 621.925,48.713 617.465,45.503C617.464,45.503 617.748,9.125 617.748,9.125L617.754,8.331L601.087,8.331L600.767,49.367C600.749,51.629 601.652,53.8 603.267,55.383C603.267,55.383 619.177,71.325 646.811,71.223C676.576,71.112 690.62,55.046 690.62,55.046C692.019,53.511 692.794,51.509 692.794,49.432L692.794,8.331ZM592.767,16.84C592.767,16.84 578.723,0.773 548.958,0.663C521.324,0.56 505.413,16.502 505.413,16.502C503.815,18.07 502.914,20.214 502.914,22.453L502.914,49.367C502.914,51.606 503.815,53.751 505.413,55.318C505.413,55.318 521.324,71.261 548.958,71.158C578.723,71.048 592.767,54.981 592.767,54.981L580.449,43.754C580.449,43.754 570.139,54.413 548.897,54.491C534.232,54.546 524.025,48.621 519.581,45.416C519.58,45.416 519.58,26.405 519.58,26.405C524.025,23.2 534.232,17.275 548.897,17.329C570.139,17.408 580.449,28.067 580.449,28.067L592.767,16.84ZM405.49,55.25C405.49,55.25 421.401,71.192 449.035,71.089C478.8,70.979 492.844,54.912 492.844,54.912C494.722,52.852 495.445,49.988 494.771,47.283C494.096,44.577 492.113,42.389 489.488,41.451L430.753,20.475C435.648,18.649 441.774,17.234 448.974,17.261C470.216,17.34 480.526,27.998 480.526,27.998L492.844,16.771C492.844,16.771 478.8,0.705 449.035,0.594C421.401,0.492 405.49,16.434 405.49,16.434C403.44,18.444 402.569,21.368 403.185,24.173C403.801,26.977 405.817,29.267 408.521,30.233L467.486,51.291C462.674,53.034 456.512,54.395 448.974,54.423C428.882,54.497 417.158,43.348 417.158,43.348L405.49,55.25ZM394.145,8.331L377.478,8.331L377.478,45.529C373.435,48.583 363.725,54.365 348.101,54.423C333.47,54.477 323.276,48.58 318.816,45.37C318.815,45.369 319.099,8.992 319.099,8.992L319.104,8.331L302.437,8.331L302.118,49.234C302.1,51.495 303.003,53.667 304.617,55.25C304.617,55.25 320.528,71.192 348.162,71.089C377.927,70.979 391.971,54.912 391.971,54.912C393.37,53.377 394.145,51.376 394.145,49.299L394.145,8.331ZM201.377,49.299C201.377,51.538 202.278,53.682 203.877,55.25C203.877,55.25 219.787,71.192 247.422,71.089C258.024,71.05 266.588,68.96 273.189,66.363C285.395,61.561 291.23,54.912 291.23,54.912C294.317,51.525 294.09,46.282 290.722,43.174L282.775,35.842C282.775,35.842 290.722,28.509 290.722,28.509C294.09,25.402 294.317,20.158 291.23,16.771C291.23,16.771 277.186,0.705 247.422,0.594C219.787,0.492 203.877,16.434 203.877,16.434C202.278,18.001 201.377,20.146 201.377,22.385L201.377,49.299ZM720.731,8.331L704.064,8.331L703.747,48.971C703.73,51.233 704.632,53.404 706.247,54.987C706.247,54.987 722.157,70.929 749.792,70.827C779.556,70.716 793.6,54.65 793.6,54.65L799.214,48.491L786.896,37.264L781.282,43.423C781.282,43.423 770.973,54.081 749.73,54.16C735.099,54.215 724.906,48.317 720.445,45.107C720.445,45.107 720.728,8.729 720.728,8.729L720.731,8.331ZM0.317,62.759L16.984,62.759L16.698,25.918C21.159,22.708 31.352,16.811 45.983,16.865C61.607,16.923 71.317,22.705 75.36,25.759C75.361,25.759 75.361,62.361 75.361,62.361L75.361,62.759L92.027,62.759L92.027,21.989C92.027,19.912 91.252,17.91 89.853,16.376C89.853,16.376 75.809,0.309 46.045,0.198C18.41,0.096 2.5,16.038 2.5,16.038C0.885,17.621 -0.017,19.793 0,22.054L0.317,62.759ZM102.872,62.759L119.539,62.759L119.252,25.918C123.713,22.708 133.907,16.811 148.537,16.865C158.114,16.9 165.469,19.086 170.659,21.476C170.658,21.476 159.101,28.259 159.101,28.259C157.118,29.423 155.704,31.354 155.193,33.596C154.683,35.837 155.121,38.191 156.405,40.098L171.652,62.759L191.74,62.759L175.18,38.147C175.18,38.147 190.466,29.176 190.466,29.176C192.633,27.904 194.111,25.723 194.488,23.238C194.864,20.754 194.1,18.233 192.408,16.376C192.408,16.376 178.364,0.309 148.599,0.198C120.965,0.096 105.054,16.038 105.054,16.038C103.439,17.621 102.537,19.793 102.555,22.054L102.872,62.759ZM906.46,62.759L923.128,62.759L922.839,25.721C927.3,22.51 937.494,16.613 952.124,16.667C961.701,16.703 969.056,18.888 974.246,21.279C974.245,21.278 962.688,28.061 962.688,28.061C960.705,29.225 959.291,31.156 958.78,33.398C958.27,35.64 958.708,37.993 959.992,39.9L975.372,62.759L995.46,62.759L978.767,37.949C978.767,37.949 994.054,28.978 994.054,28.978C996.221,27.706 997.698,25.525 998.075,23.04C998.451,20.556 997.687,18.035 995.995,16.178C995.995,16.178 981.951,0.111 952.186,0C924.552,-0.102 908.641,15.84 908.641,15.84C907.026,17.423 906.124,19.595 906.142,21.856L906.46,62.759ZM805.525,62.759L822.192,62.759L821.909,26.383C826.37,23.173 836.564,17.275 851.194,17.329C866.819,17.387 876.529,23.169 880.572,26.223C880.572,26.224 880.572,61.039 880.572,62.759L897.239,62.759L897.239,22.453C897.239,20.377 896.463,18.375 895.065,16.84C895.065,16.84 881.021,0.773 851.256,0.663C823.622,0.56 807.711,16.502 807.711,16.502C806.096,18.086 805.194,20.257 805.212,22.518L805.525,62.759ZM218.044,45.347L218.044,26.336C222.488,23.131 232.695,17.206 247.36,17.261C258.595,17.302 266.772,20.304 271.983,23.122C271.983,23.122 264.835,29.717 264.835,29.717C263.125,31.294 262.153,33.515 262.153,35.841C262.153,38.168 263.125,40.388 264.835,41.966L271.995,48.572C270.578,49.342 268.943,50.124 267.088,50.853C262.036,52.841 255.473,54.393 247.36,54.423C232.695,54.477 222.488,48.552 218.044,45.347L218.044,45.347Z" style="fill:white;"/>
</svg>
